#N canvas 0 29 925 512 10;
#X obj 343 416 dac~;
#X msg 357 145 event e;
#X obj 297 23 vsl 15 128 0.1 4 0 0 empty empty empty 0 -8 0 8 -257472
-1 -1 0 1;
#X msg 247 181 control freq \$1;
#X obj 399 329 adc~;
#X msg 432 286 set freq amp rev del modf;
#X obj 209 23 vsl 15 128 0 1 0 0 empty empty empty 0 -8 0 8 -257472
-1 -1 0 1;
#X msg 209 204 control amp \$1;
#X obj 141 116 vsl 15 128 0 0.99 0 0 empty empty empty 0 -8 0 8 -261681
-1 -1 0 1;
#X msg 141 252 control rev \$1;
#X obj 104 148 vsl 15 128 0.1 0.5 0 0 empty empty empty 0 -8 0 8 -261681
-1 -1 0 1;
#X msg 104 287 control del \$1;
#X msg 463 322 reset;
#X msg 363 170 event i 1 0 10 16000 200;
#X obj 432 247 loadbang;
#X obj 361 270 tgl 15 0 empty empty empty 0 -6 0 8 -262144 -1 -1 1
1;
#X msg 361 288 run \$1;
#X msg 370 196 event f 1 0 4096 10 1 0.5 0.25 0.2 0.166;
#X obj 67 181 vsl 15 128 0.1 2 0 0 empty empty empty 0 -8 0 8 -261681
-1 -1 0 1;
#X msg 67 317 control modf \$1;
#X obj 239 9 r mod;
#X obj 249 37 *;
#X obj 282 5 tgl 15 0 empty empty empty 0 -6 0 8 -257472 -1 -1 0 1
;
#X obj 247 155 +;
#X msg 440 427 \; \$1 \$2;
#X obj 497 394 bng 15 250 50 0 empty empty empty 0 -6 0 8 -262144 -1
-1;
#X text 320 36 instr 1 controls use invalue opcode;
#X text 318 5 modulation source is instr 2 outvalue opcode;
#X text 373 130 ends score and stops processing;
#X text 475 155 starts an i-statement score event;
#X text 608 179 generates a function table;
#X text 395 219 csound runs by default \, run 0 message stops it \,
run 1 re-starts it;
#X text 480 271 invalue channels are registered using 'set';
#X text 488 306 resets the engine and recompiles the score;
#X text 539 328 opens a new orc/score;
#X text 510 380 bangs when score is finished;
#X text 460 411 outvalues: [channel] [value];
#X text 29 354 instr 2 controls use invalue opcode;
#X msg 462 343 open csapi_demo.csd;
#X obj 327 367 csoundapi~ csapi_demo.csd;
#X text 513 67 csoundapi~ 1 (c) V Lazzarini \, 2005;
#X connect 1 0 39 0;
#X connect 2 0 23 1;
#X connect 3 0 39 0;
#X connect 4 0 39 0;
#X connect 5 0 39 0;
#X connect 6 0 7 0;
#X connect 7 0 39 0;
#X connect 8 0 9 0;
#X connect 9 0 39 0;
#X connect 10 0 11 0;
#X connect 11 0 39 0;
#X connect 12 0 39 0;
#X connect 13 0 39 0;
#X connect 14 0 5 0;
#X connect 14 0 15 0;
#X connect 15 0 16 0;
#X connect 16 0 39 0;
#X connect 17 0 39 0;
#X connect 18 0 19 0;
#X connect 19 0 39 0;
#X connect 20 0 21 0;
#X connect 21 0 23 0;
#X connect 22 0 21 1;
#X connect 23 0 3 0;
#X connect 38 0 39 0;
#X connect 39 0 0 0;
#X connect 39 1 0 1;
#X connect 39 2 24 0;
