{
	"patcher" : 	{
		"fileversion" : 1,
		"rect" : [ 157.0, 143.0, 568.0, 337.0 ],
		"bglocked" : 0,
		"defrect" : [ 157.0, 143.0, 568.0, 337.0 ],
		"openrect" : [ 0.0, 0.0, 0.0, 0.0 ],
		"openinpresentation" : 1,
		"default_fontsize" : 12.0,
		"default_fontface" : 0,
		"default_fontname" : "Arial",
		"gridonopen" : 0,
		"gridsize" : [ 15.0, 15.0 ],
		"gridsnaponopen" : 0,
		"toolbarvisible" : 1,
		"boxanimatetime" : 200,
		"imprint" : 0,
		"enablehscroll" : 1,
		"enablevscroll" : 1,
		"devicewidth" : 0.0,
		"boxes" : [ 			{
				"box" : 				{
					"maxclass" : "message",
					"text" : "0",
					"outlettype" : [ "" ],
					"fontname" : "Arial",
					"id" : "obj-23",
					"numinlets" : 2,
					"fontsize" : 12.0,
					"patching_rect" : [ 1005.0, 225.0, 32.5, 18.0 ],
					"numoutlets" : 1
				}

			}
, 			{
				"box" : 				{
					"maxclass" : "comment",
					"text" : "mouse mode",
					"fontname" : "Arial",
					"id" : "obj-22",
					"presentation_rect" : [ 301.0, 48.0, 87.0, 20.0 ],
					"numinlets" : 1,
					"fontsize" : 12.0,
					"patching_rect" : [ 1072.0, 254.0, 87.0, 20.0 ],
					"numoutlets" : 0,
					"presentation" : 1
				}

			}
, 			{
				"box" : 				{
					"maxclass" : "newobj",
					"text" : "+ 1",
					"outlettype" : [ "int" ],
					"fontname" : "Arial",
					"id" : "obj-21",
					"numinlets" : 2,
					"fontsize" : 12.0,
					"patching_rect" : [ 1005.0, 285.0, 32.5, 20.0 ],
					"numoutlets" : 1
				}

			}
, 			{
				"box" : 				{
					"maxclass" : "umenu",
					"items" : [ "select", ",", "modify", "loop", ",", "scroll", "+", "zoom" ],
					"outlettype" : [ "int", "", "" ],
					"align" : 1,
					"types" : [  ],
					"fontname" : "Arial",
					"id" : "obj-19",
					"presentation_rect" : [ 210.0, 48.0, 92.0, 20.0 ],
					"numinlets" : 1,
					"arrow" : 0,
					"fontsize" : 12.0,
					"patching_rect" : [ 1005.0, 255.0, 65.0, 20.0 ],
					"numoutlets" : 3,
					"presentation" : 1
				}

			}
, 			{
				"box" : 				{
					"maxclass" : "comment",
					"text" : "waveform",
					"fontname" : "Arial",
					"id" : "obj-16",
					"numinlets" : 1,
					"fontsize" : 12.0,
					"patching_rect" : [ 1050.0, 390.0, 74.0, 20.0 ],
					"numoutlets" : 0
				}

			}
, 			{
				"box" : 				{
					"maxclass" : "comment",
					"text" : "drag and drop an audio file here...",
					"linecount" : 2,
					"fontname" : "Arial",
					"id" : "obj-35",
					"textcolor" : [ 0.615686, 0.615686, 0.615686, 1.0 ],
					"presentation_rect" : [ 189.0, 161.0, 199.0, 20.0 ],
					"frgb" : [ 0.615686, 0.615686, 0.615686, 1.0 ],
					"numinlets" : 1,
					"fontface" : 1,
					"fontsize" : 12.0,
					"patching_rect" : [ 600.0, 45.0, 166.0, 34.0 ],
					"numoutlets" : 0,
					"presentation" : 1
				}

			}
, 			{
				"box" : 				{
					"maxclass" : "newobj",
					"text" : "p",
					"outlettype" : [ "bang" ],
					"fontname" : "Arial",
					"id" : "obj-71",
					"numinlets" : 1,
					"fontsize" : 12.0,
					"patching_rect" : [ 585.0, 105.0, 48.0, 20.0 ],
					"numoutlets" : 1,
					"patcher" : 					{
						"fileversion" : 1,
						"rect" : [ 33.0, 75.0, 640.0, 480.0 ],
						"bglocked" : 0,
						"defrect" : [ 33.0, 75.0, 640.0, 480.0 ],
						"openrect" : [ 0.0, 0.0, 0.0, 0.0 ],
						"openinpresentation" : 0,
						"default_fontsize" : 12.0,
						"default_fontface" : 0,
						"default_fontname" : "Arial",
						"gridonopen" : 0,
						"gridsize" : [ 15.0, 15.0 ],
						"gridsnaponopen" : 0,
						"toolbarvisible" : 1,
						"boxanimatetime" : 200,
						"imprint" : 0,
						"enablehscroll" : 1,
						"enablevscroll" : 1,
						"devicewidth" : 0.0,
						"boxes" : [ 							{
								"box" : 								{
									"maxclass" : "newobj",
									"text" : "prepend set",
									"outlettype" : [ "" ],
									"fontname" : "Arial",
									"id" : "obj-8",
									"numinlets" : 1,
									"fontsize" : 12.0,
									"patching_rect" : [ 75.0, 180.0, 80.0, 20.0 ],
									"numoutlets" : 1
								}

							}
, 							{
								"box" : 								{
									"maxclass" : "newobj",
									"text" : "t b l",
									"outlettype" : [ "bang", "" ],
									"fontname" : "Arial",
									"id" : "obj-13",
									"numinlets" : 1,
									"fontsize" : 12.0,
									"patching_rect" : [ 45.0, 120.0, 32.5, 20.0 ],
									"numoutlets" : 2
								}

							}
, 							{
								"box" : 								{
									"maxclass" : "inlet",
									"outlettype" : [ "" ],
									"id" : "obj-67",
									"numinlets" : 0,
									"patching_rect" : [ 45.0, 45.0, 25.0, 25.0 ],
									"numoutlets" : 1,
									"comment" : ""
								}

							}
, 							{
								"box" : 								{
									"maxclass" : "outlet",
									"id" : "obj-70",
									"numinlets" : 1,
									"patching_rect" : [ 45.0, 225.0, 25.0, 25.0 ],
									"numoutlets" : 0,
									"comment" : ""
								}

							}
 ],
						"lines" : [ 							{
								"patchline" : 								{
									"source" : [ "obj-13", 1 ],
									"destination" : [ "obj-8", 0 ],
									"hidden" : 0,
									"midpoints" : [  ]
								}

							}
, 							{
								"patchline" : 								{
									"source" : [ "obj-13", 0 ],
									"destination" : [ "obj-70", 0 ],
									"hidden" : 0,
									"midpoints" : [  ]
								}

							}
, 							{
								"patchline" : 								{
									"source" : [ "obj-67", 0 ],
									"destination" : [ "obj-13", 0 ],
									"hidden" : 0,
									"midpoints" : [  ]
								}

							}
, 							{
								"patchline" : 								{
									"source" : [ "obj-8", 0 ],
									"destination" : [ "obj-70", 0 ],
									"hidden" : 0,
									"midpoints" : [  ]
								}

							}
 ]
					}
,
					"saved_object_attributes" : 					{
						"fontname" : "Arial",
						"default_fontface" : 0,
						"globalpatchername" : "",
						"fontface" : 0,
						"default_fontname" : "Arial",
						"fontsize" : 12.0,
						"default_fontsize" : 12.0
					}

				}

			}
, 			{
				"box" : 				{
					"maxclass" : "newobj",
					"varname" : "player",
					"text" : "p buffers",
					"fontname" : "Arial",
					"id" : "obj-57",
					"numinlets" : 1,
					"fontsize" : 12.0,
					"patching_rect" : [ 585.0, 165.0, 62.0, 20.0 ],
					"numoutlets" : 0,
					"patcher" : 					{
						"fileversion" : 1,
						"rect" : [ 33.0, 75.0, 523.0, 395.0 ],
						"bglocked" : 0,
						"defrect" : [ 33.0, 75.0, 523.0, 395.0 ],
						"openrect" : [ 0.0, 0.0, 0.0, 0.0 ],
						"openinpresentation" : 0,
						"default_fontsize" : 12.0,
						"default_fontface" : 0,
						"default_fontname" : "Arial",
						"gridonopen" : 0,
						"gridsize" : [ 15.0, 15.0 ],
						"gridsnaponopen" : 0,
						"toolbarvisible" : 1,
						"boxanimatetime" : 200,
						"imprint" : 0,
						"enablehscroll" : 1,
						"enablevscroll" : 1,
						"devicewidth" : 0.0,
						"boxes" : [ 							{
								"box" : 								{
									"maxclass" : "newobj",
									"text" : "* 0.001",
									"outlettype" : [ "float" ],
									"fontname" : "Arial",
									"id" : "obj-12",
									"numinlets" : 2,
									"fontsize" : 12.0,
									"patching_rect" : [ 225.0, 210.0, 49.0, 20.0 ],
									"numoutlets" : 1
								}

							}
, 							{
								"box" : 								{
									"maxclass" : "newobj",
									"text" : "pattrforward parent::waveform_select_start",
									"outlettype" : [ "" ],
									"fontname" : "Arial",
									"id" : "obj-10",
									"numinlets" : 1,
									"fontsize" : 12.0,
									"patching_rect" : [ 165.0, 330.0, 243.0, 20.0 ],
									"numoutlets" : 1
								}

							}
, 							{
								"box" : 								{
									"maxclass" : "newobj",
									"text" : "pattrforward parent::waveform_select_end",
									"outlettype" : [ "" ],
									"fontname" : "Arial",
									"id" : "obj-9",
									"numinlets" : 1,
									"fontsize" : 12.0,
									"patching_rect" : [ 255.0, 240.0, 240.0, 20.0 ],
									"numoutlets" : 1
								}

							}
, 							{
								"box" : 								{
									"maxclass" : "message",
									"text" : "0",
									"outlettype" : [ "" ],
									"fontname" : "Arial",
									"id" : "obj-8",
									"numinlets" : 2,
									"fontsize" : 12.0,
									"patching_rect" : [ 195.0, 270.0, 32.5, 18.0 ],
									"numoutlets" : 1
								}

							}
, 							{
								"box" : 								{
									"maxclass" : "newobj",
									"text" : "pattrforward parent::waveform_display_start",
									"outlettype" : [ "" ],
									"fontname" : "Arial",
									"id" : "obj-7",
									"numinlets" : 1,
									"fontsize" : 12.0,
									"patching_rect" : [ 195.0, 300.0, 249.0, 20.0 ],
									"numoutlets" : 1
								}

							}
, 							{
								"box" : 								{
									"maxclass" : "newobj",
									"text" : "pattrforward parent::waveform_display_length",
									"outlettype" : [ "" ],
									"fontname" : "Arial",
									"id" : "obj-6",
									"numinlets" : 1,
									"fontsize" : 12.0,
									"patching_rect" : [ 240.0, 270.0, 259.0, 20.0 ],
									"numoutlets" : 1
								}

							}
, 							{
								"box" : 								{
									"maxclass" : "newobj",
									"text" : "prepend open",
									"outlettype" : [ "" ],
									"fontname" : "Arial",
									"id" : "obj-5",
									"numinlets" : 1,
									"fontsize" : 12.0,
									"patching_rect" : [ 180.0, 135.0, 87.0, 20.0 ],
									"numoutlets" : 1
								}

							}
, 							{
								"box" : 								{
									"maxclass" : "newobj",
									"text" : "sfinfo~",
									"outlettype" : [ "int", "int", "float", "float", "", "" ],
									"fontname" : "Arial",
									"id" : "obj-4",
									"numinlets" : 1,
									"fontsize" : 12.0,
									"patching_rect" : [ 180.0, 180.0, 86.5, 20.0 ],
									"numoutlets" : 6
								}

							}
, 							{
								"box" : 								{
									"maxclass" : "newobj",
									"text" : "pak read file 0 -1 2",
									"outlettype" : [ "" ],
									"fontname" : "Arial",
									"id" : "obj-3",
									"numinlets" : 5,
									"fontsize" : 12.0,
									"patching_rect" : [ 30.0, 135.0, 111.0, 20.0 ],
									"numoutlets" : 1
								}

							}
, 							{
								"box" : 								{
									"maxclass" : "newobj",
									"text" : "t l l",
									"outlettype" : [ "", "" ],
									"fontname" : "Arial",
									"id" : "obj-2",
									"numinlets" : 1,
									"fontsize" : 12.0,
									"patching_rect" : [ 60.0, 90.0, 32.5, 20.0 ],
									"numoutlets" : 2
								}

							}
, 							{
								"box" : 								{
									"maxclass" : "newobj",
									"text" : "buffer~ reverb_buf",
									"outlettype" : [ "float", "bang" ],
									"fontname" : "Arial",
									"id" : "obj-1",
									"numinlets" : 1,
									"fontsize" : 12.0,
									"patching_rect" : [ 30.0, 180.0, 109.0, 20.0 ],
									"numoutlets" : 2
								}

							}
, 							{
								"box" : 								{
									"maxclass" : "inlet",
									"outlettype" : [ "" ],
									"id" : "obj-65",
									"numinlets" : 0,
									"patching_rect" : [ 60.0, 30.0, 25.0, 25.0 ],
									"numoutlets" : 1,
									"comment" : ""
								}

							}
 ],
						"lines" : [ 							{
								"patchline" : 								{
									"source" : [ "obj-3", 0 ],
									"destination" : [ "obj-1", 0 ],
									"hidden" : 0,
									"midpoints" : [  ]
								}

							}
, 							{
								"patchline" : 								{
									"source" : [ "obj-12", 0 ],
									"destination" : [ "obj-6", 0 ],
									"hidden" : 0,
									"midpoints" : [  ]
								}

							}
, 							{
								"patchline" : 								{
									"source" : [ "obj-12", 0 ],
									"destination" : [ "obj-9", 0 ],
									"hidden" : 0,
									"midpoints" : [  ]
								}

							}
, 							{
								"patchline" : 								{
									"source" : [ "obj-4", 3 ],
									"destination" : [ "obj-12", 0 ],
									"hidden" : 0,
									"midpoints" : [  ]
								}

							}
, 							{
								"patchline" : 								{
									"source" : [ "obj-8", 0 ],
									"destination" : [ "obj-10", 0 ],
									"hidden" : 0,
									"midpoints" : [  ]
								}

							}
, 							{
								"patchline" : 								{
									"source" : [ "obj-8", 0 ],
									"destination" : [ "obj-7", 0 ],
									"hidden" : 0,
									"midpoints" : [  ]
								}

							}
, 							{
								"patchline" : 								{
									"source" : [ "obj-4", 3 ],
									"destination" : [ "obj-8", 0 ],
									"hidden" : 0,
									"midpoints" : [  ]
								}

							}
, 							{
								"patchline" : 								{
									"source" : [ "obj-5", 0 ],
									"destination" : [ "obj-4", 0 ],
									"hidden" : 0,
									"midpoints" : [  ]
								}

							}
, 							{
								"patchline" : 								{
									"source" : [ "obj-65", 0 ],
									"destination" : [ "obj-2", 0 ],
									"hidden" : 0,
									"midpoints" : [  ]
								}

							}
, 							{
								"patchline" : 								{
									"source" : [ "obj-2", 0 ],
									"destination" : [ "obj-5", 0 ],
									"hidden" : 0,
									"midpoints" : [  ]
								}

							}
, 							{
								"patchline" : 								{
									"source" : [ "obj-2", 1 ],
									"destination" : [ "obj-3", 1 ],
									"hidden" : 0,
									"midpoints" : [  ]
								}

							}
 ]
					}
,
					"saved_object_attributes" : 					{
						"fontname" : "Arial",
						"default_fontface" : 0,
						"globalpatchername" : "",
						"fontface" : 0,
						"default_fontname" : "Arial",
						"fontsize" : 12.0,
						"default_fontsize" : 12.0
					}

				}

			}
, 			{
				"box" : 				{
					"maxclass" : "newobj",
					"text" : "p",
					"outlettype" : [ "", "", "", "" ],
					"fontname" : "Arial",
					"id" : "obj-79",
					"numinlets" : 4,
					"fontsize" : 12.0,
					"patching_rect" : [ 570.0, 225.0, 364.0, 20.0 ],
					"numoutlets" : 4,
					"patcher" : 					{
						"fileversion" : 1,
						"rect" : [ 0.0, 0.0, 640.0, 480.0 ],
						"bglocked" : 0,
						"defrect" : [ 0.0, 0.0, 640.0, 480.0 ],
						"openrect" : [ 0.0, 0.0, 0.0, 0.0 ],
						"openinpresentation" : 0,
						"default_fontsize" : 12.0,
						"default_fontface" : 0,
						"default_fontname" : "Arial",
						"gridonopen" : 0,
						"gridsize" : [ 15.0, 15.0 ],
						"gridsnaponopen" : 0,
						"toolbarvisible" : 1,
						"boxanimatetime" : 200,
						"imprint" : 0,
						"enablehscroll" : 1,
						"enablevscroll" : 1,
						"devicewidth" : 0.0,
						"boxes" : [ 							{
								"box" : 								{
									"maxclass" : "newobj",
									"text" : "* 0.001",
									"outlettype" : [ "float" ],
									"fontname" : "Arial",
									"id" : "obj-65",
									"numinlets" : 2,
									"fontsize" : 12.0,
									"patching_rect" : [ 365.0, 100.0, 49.0, 20.0 ],
									"numoutlets" : 1
								}

							}
, 							{
								"box" : 								{
									"maxclass" : "newobj",
									"text" : "* 0.001",
									"outlettype" : [ "float" ],
									"fontname" : "Arial",
									"id" : "obj-9",
									"numinlets" : 2,
									"fontsize" : 12.0,
									"patching_rect" : [ 260.0, 100.0, 49.0, 20.0 ],
									"numoutlets" : 1
								}

							}
, 							{
								"box" : 								{
									"maxclass" : "newobj",
									"text" : "* 0.001",
									"outlettype" : [ "float" ],
									"fontname" : "Arial",
									"id" : "obj-10",
									"numinlets" : 2,
									"fontsize" : 12.0,
									"patching_rect" : [ 155.0, 100.0, 49.0, 20.0 ],
									"numoutlets" : 1
								}

							}
, 							{
								"box" : 								{
									"maxclass" : "newobj",
									"text" : "* 0.001",
									"outlettype" : [ "float" ],
									"fontname" : "Arial",
									"id" : "obj-12",
									"numinlets" : 2,
									"fontsize" : 12.0,
									"patching_rect" : [ 50.0, 100.0, 49.0, 20.0 ],
									"numoutlets" : 1
								}

							}
, 							{
								"box" : 								{
									"maxclass" : "message",
									"text" : "set $1",
									"outlettype" : [ "" ],
									"fontname" : "Arial",
									"id" : "obj-13",
									"numinlets" : 2,
									"fontsize" : 12.0,
									"patching_rect" : [ 50.0, 130.0, 44.0, 18.0 ],
									"numoutlets" : 1
								}

							}
, 							{
								"box" : 								{
									"maxclass" : "message",
									"text" : "set $1",
									"outlettype" : [ "" ],
									"fontname" : "Arial",
									"id" : "obj-14",
									"numinlets" : 2,
									"fontsize" : 12.0,
									"patching_rect" : [ 155.0, 130.0, 44.0, 18.0 ],
									"numoutlets" : 1
								}

							}
, 							{
								"box" : 								{
									"maxclass" : "message",
									"text" : "set $1",
									"outlettype" : [ "" ],
									"fontname" : "Arial",
									"id" : "obj-15",
									"numinlets" : 2,
									"fontsize" : 12.0,
									"patching_rect" : [ 365.0, 130.0, 44.0, 18.0 ],
									"numoutlets" : 1
								}

							}
, 							{
								"box" : 								{
									"maxclass" : "message",
									"text" : "set $1",
									"outlettype" : [ "" ],
									"fontname" : "Arial",
									"id" : "obj-29",
									"numinlets" : 2,
									"fontsize" : 12.0,
									"patching_rect" : [ 260.0, 130.0, 44.0, 18.0 ],
									"numoutlets" : 1
								}

							}
, 							{
								"box" : 								{
									"maxclass" : "inlet",
									"outlettype" : [ "float" ],
									"id" : "obj-58",
									"numinlets" : 0,
									"patching_rect" : [ 50.0, 40.0, 25.0, 25.0 ],
									"numoutlets" : 1,
									"comment" : ""
								}

							}
, 							{
								"box" : 								{
									"maxclass" : "inlet",
									"outlettype" : [ "float" ],
									"id" : "obj-59",
									"numinlets" : 0,
									"patching_rect" : [ 155.0, 40.0, 25.0, 25.0 ],
									"numoutlets" : 1,
									"comment" : ""
								}

							}
, 							{
								"box" : 								{
									"maxclass" : "inlet",
									"outlettype" : [ "float" ],
									"id" : "obj-60",
									"numinlets" : 0,
									"patching_rect" : [ 260.0, 40.0, 25.0, 25.0 ],
									"numoutlets" : 1,
									"comment" : ""
								}

							}
, 							{
								"box" : 								{
									"maxclass" : "inlet",
									"outlettype" : [ "float" ],
									"id" : "obj-62",
									"numinlets" : 0,
									"patching_rect" : [ 365.0, 40.0, 25.0, 25.0 ],
									"numoutlets" : 1,
									"comment" : ""
								}

							}
, 							{
								"box" : 								{
									"maxclass" : "outlet",
									"id" : "obj-67",
									"numinlets" : 1,
									"patching_rect" : [ 50.0, 208.0, 25.0, 25.0 ],
									"numoutlets" : 0,
									"comment" : ""
								}

							}
, 							{
								"box" : 								{
									"maxclass" : "outlet",
									"id" : "obj-68",
									"numinlets" : 1,
									"patching_rect" : [ 155.0, 208.0, 25.0, 25.0 ],
									"numoutlets" : 0,
									"comment" : ""
								}

							}
, 							{
								"box" : 								{
									"maxclass" : "outlet",
									"id" : "obj-70",
									"numinlets" : 1,
									"patching_rect" : [ 260.0, 208.0, 25.0, 25.0 ],
									"numoutlets" : 0,
									"comment" : ""
								}

							}
, 							{
								"box" : 								{
									"maxclass" : "outlet",
									"id" : "obj-74",
									"numinlets" : 1,
									"patching_rect" : [ 365.0, 208.0, 25.0, 25.0 ],
									"numoutlets" : 0,
									"comment" : ""
								}

							}
 ],
						"lines" : [ 							{
								"patchline" : 								{
									"source" : [ "obj-12", 0 ],
									"destination" : [ "obj-13", 0 ],
									"hidden" : 0,
									"midpoints" : [  ]
								}

							}
, 							{
								"patchline" : 								{
									"source" : [ "obj-10", 0 ],
									"destination" : [ "obj-14", 0 ],
									"hidden" : 0,
									"midpoints" : [  ]
								}

							}
, 							{
								"patchline" : 								{
									"source" : [ "obj-9", 0 ],
									"destination" : [ "obj-29", 0 ],
									"hidden" : 0,
									"midpoints" : [  ]
								}

							}
, 							{
								"patchline" : 								{
									"source" : [ "obj-65", 0 ],
									"destination" : [ "obj-15", 0 ],
									"hidden" : 0,
									"midpoints" : [  ]
								}

							}
, 							{
								"patchline" : 								{
									"source" : [ "obj-58", 0 ],
									"destination" : [ "obj-12", 0 ],
									"hidden" : 0,
									"midpoints" : [  ]
								}

							}
, 							{
								"patchline" : 								{
									"source" : [ "obj-59", 0 ],
									"destination" : [ "obj-10", 0 ],
									"hidden" : 0,
									"midpoints" : [  ]
								}

							}
, 							{
								"patchline" : 								{
									"source" : [ "obj-60", 0 ],
									"destination" : [ "obj-9", 0 ],
									"hidden" : 0,
									"midpoints" : [  ]
								}

							}
, 							{
								"patchline" : 								{
									"source" : [ "obj-62", 0 ],
									"destination" : [ "obj-65", 0 ],
									"hidden" : 0,
									"midpoints" : [  ]
								}

							}
, 							{
								"patchline" : 								{
									"source" : [ "obj-13", 0 ],
									"destination" : [ "obj-67", 0 ],
									"hidden" : 0,
									"midpoints" : [  ]
								}

							}
, 							{
								"patchline" : 								{
									"source" : [ "obj-14", 0 ],
									"destination" : [ "obj-68", 0 ],
									"hidden" : 0,
									"midpoints" : [  ]
								}

							}
, 							{
								"patchline" : 								{
									"source" : [ "obj-29", 0 ],
									"destination" : [ "obj-70", 0 ],
									"hidden" : 0,
									"midpoints" : [  ]
								}

							}
, 							{
								"patchline" : 								{
									"source" : [ "obj-15", 0 ],
									"destination" : [ "obj-74", 0 ],
									"hidden" : 0,
									"midpoints" : [  ]
								}

							}
 ]
					}
,
					"saved_object_attributes" : 					{
						"fontname" : "Arial",
						"default_fontface" : 0,
						"globalpatchername" : "",
						"fontface" : 0,
						"default_fontname" : "Arial",
						"fontsize" : 12.0,
						"default_fontsize" : 12.0
					}

				}

			}
, 			{
				"box" : 				{
					"maxclass" : "comment",
					"text" : "undo last selection",
					"fontname" : "Arial",
					"id" : "obj-2",
					"presentation_rect" : [ 53.0, 48.0, 118.0, 20.0 ],
					"numinlets" : 1,
					"fontsize" : 12.0,
					"patching_rect" : [ 795.0, 495.0, 118.0, 20.0 ],
					"numoutlets" : 0,
					"presentation" : 1
				}

			}
, 			{
				"box" : 				{
					"maxclass" : "message",
					"text" : "undo",
					"outlettype" : [ "" ],
					"fontname" : "Arial",
					"id" : "obj-18",
					"presentation_rect" : [ 15.0, 48.0, 38.0, 18.0 ],
					"numinlets" : 2,
					"fontsize" : 12.0,
					"patching_rect" : [ 834.0, 516.0, 38.0, 18.0 ],
					"numoutlets" : 1,
					"presentation" : 1
				}

			}
, 			{
				"box" : 				{
					"maxclass" : "newobj",
					"text" : "* 1000.",
					"outlettype" : [ "float" ],
					"fontname" : "Arial",
					"id" : "obj-73",
					"numinlets" : 2,
					"fontsize" : 12.0,
					"patching_rect" : [ 922.0, 308.0, 49.0, 20.0 ],
					"numoutlets" : 1
				}

			}
, 			{
				"box" : 				{
					"maxclass" : "newobj",
					"text" : "* 1000.",
					"outlettype" : [ "float" ],
					"fontname" : "Arial",
					"id" : "obj-72",
					"numinlets" : 2,
					"fontsize" : 12.0,
					"patching_rect" : [ 817.0, 308.0, 49.0, 20.0 ],
					"numoutlets" : 1
				}

			}
, 			{
				"box" : 				{
					"maxclass" : "newobj",
					"text" : "* 1000.",
					"outlettype" : [ "float" ],
					"fontname" : "Arial",
					"id" : "obj-20",
					"numinlets" : 2,
					"fontsize" : 12.0,
					"patching_rect" : [ 712.0, 308.0, 49.0, 20.0 ],
					"numoutlets" : 1
				}

			}
, 			{
				"box" : 				{
					"maxclass" : "newobj",
					"text" : "* 1000.",
					"outlettype" : [ "float" ],
					"fontname" : "Arial",
					"id" : "obj-26",
					"numinlets" : 2,
					"fontsize" : 12.0,
					"patching_rect" : [ 607.0, 308.0, 49.0, 20.0 ],
					"numoutlets" : 1
				}

			}
, 			{
				"box" : 				{
					"maxclass" : "comment",
					"text" : "playback speed",
					"fontname" : "Arial",
					"id" : "obj-101",
					"presentation_rect" : [ 60.0, 210.0, 101.0, 20.0 ],
					"numinlets" : 1,
					"fontsize" : 12.0,
					"patching_rect" : [ 585.0, 480.0, 101.0, 20.0 ],
					"numoutlets" : 0,
					"presentation" : 1
				}

			}
, 			{
				"box" : 				{
					"maxclass" : "comment",
					"text" : "select end",
					"fontname" : "Arial",
					"id" : "obj-96",
					"numinlets" : 1,
					"fontsize" : 12.0,
					"patching_rect" : [ 919.75, 255.0, 74.0, 20.0 ],
					"numoutlets" : 0
				}

			}
, 			{
				"box" : 				{
					"maxclass" : "comment",
					"text" : "select start ",
					"fontname" : "Arial",
					"id" : "obj-97",
					"numinlets" : 1,
					"fontsize" : 12.0,
					"patching_rect" : [ 810.5, 255.0, 77.0, 20.0 ],
					"numoutlets" : 0
				}

			}
, 			{
				"box" : 				{
					"maxclass" : "flonum",
					"varname" : "waveform_select_end",
					"outlettype" : [ "float", "bang" ],
					"minimum" : 0.01,
					"triscale" : 0.9,
					"htextcolor" : [ 0.870588, 0.870588, 0.870588, 1.0 ],
					"fontname" : "Arial",
					"id" : "obj-98",
					"numinlets" : 1,
					"fontsize" : 12.0,
					"patching_rect" : [ 922.0, 278.0, 53.0, 20.0 ],
					"numoutlets" : 2
				}

			}
, 			{
				"box" : 				{
					"maxclass" : "flonum",
					"varname" : "waveform_select_start",
					"outlettype" : [ "float", "bang" ],
					"minimum" : 0.0,
					"triscale" : 0.9,
					"htextcolor" : [ 0.870588, 0.870588, 0.870588, 1.0 ],
					"fontname" : "Arial",
					"id" : "obj-99",
					"numinlets" : 1,
					"fontsize" : 12.0,
					"patching_rect" : [ 817.0, 278.0, 53.0, 20.0 ],
					"numoutlets" : 2
				}

			}
, 			{
				"box" : 				{
					"maxclass" : "message",
					"text" : "startloop",
					"outlettype" : [ "" ],
					"fontname" : "Arial",
					"id" : "obj-91",
					"bgcolor" : [ 0.45098, 1.0, 0.0, 1.0 ],
					"numinlets" : 2,
					"fontface" : 1,
					"fontsize" : 12.0,
					"patching_rect" : [ 727.0, 503.0, 61.0, 18.0 ],
					"numoutlets" : 1
				}

			}
, 			{
				"box" : 				{
					"maxclass" : "newobj",
					"varname" : "groover",
					"text" : "p groover",
					"outlettype" : [ "signal", "signal" ],
					"fontname" : "Arial",
					"id" : "obj-90",
					"numinlets" : 4,
					"fontsize" : 12.0,
					"patching_rect" : [ 607.0, 533.0, 139.0, 20.0 ],
					"numoutlets" : 2,
					"patcher" : 					{
						"fileversion" : 1,
						"rect" : [ 76.0, 109.0, 685.0, 545.0 ],
						"bglocked" : 0,
						"defrect" : [ 76.0, 109.0, 685.0, 545.0 ],
						"openrect" : [ 0.0, 0.0, 0.0, 0.0 ],
						"openinpresentation" : 0,
						"default_fontsize" : 12.0,
						"default_fontface" : 0,
						"default_fontname" : "Arial",
						"gridonopen" : 0,
						"gridsize" : [ 15.0, 15.0 ],
						"gridsnaponopen" : 0,
						"toolbarvisible" : 1,
						"boxanimatetime" : 200,
						"imprint" : 0,
						"enablehscroll" : 1,
						"enablevscroll" : 1,
						"devicewidth" : 0.0,
						"boxes" : [ 							{
								"box" : 								{
									"maxclass" : "newobj",
									"text" : "pak line 0.",
									"outlettype" : [ "" ],
									"fontname" : "Arial",
									"id" : "obj-13",
									"numinlets" : 2,
									"fontsize" : 12.0,
									"patching_rect" : [ 270.0, 480.0, 66.0, 20.0 ],
									"numoutlets" : 1
								}

							}
, 							{
								"box" : 								{
									"maxclass" : "newobj",
									"text" : "* 1000.",
									"outlettype" : [ "float" ],
									"fontname" : "Arial",
									"id" : "obj-12",
									"numinlets" : 2,
									"fontsize" : 12.0,
									"patching_rect" : [ 315.0, 450.0, 49.0, 20.0 ],
									"numoutlets" : 1
								}

							}
, 							{
								"box" : 								{
									"maxclass" : "newobj",
									"text" : "pattrforward parent::waveform",
									"outlettype" : [ "" ],
									"fontname" : "Arial",
									"id" : "obj-11",
									"numinlets" : 1,
									"fontsize" : 12.0,
									"patching_rect" : [ 270.0, 510.0, 172.0, 20.0 ],
									"numoutlets" : 1
								}

							}
, 							{
								"box" : 								{
									"maxclass" : "newobj",
									"text" : "+ 0.",
									"outlettype" : [ "float" ],
									"fontname" : "Arial",
									"id" : "obj-9",
									"numinlets" : 2,
									"fontsize" : 12.0,
									"patching_rect" : [ 315.0, 420.0, 32.5, 20.0 ],
									"numoutlets" : 1
								}

							}
, 							{
								"box" : 								{
									"maxclass" : "newobj",
									"text" : "snapshot~ 50",
									"outlettype" : [ "float" ],
									"fontname" : "Arial",
									"id" : "obj-8",
									"numinlets" : 2,
									"fontsize" : 12.0,
									"patching_rect" : [ 255.0, 315.0, 86.0, 20.0 ],
									"numoutlets" : 1
								}

							}
, 							{
								"box" : 								{
									"maxclass" : "newobj",
									"text" : "* 1.",
									"outlettype" : [ "float" ],
									"fontname" : "Arial",
									"id" : "obj-7",
									"numinlets" : 2,
									"fontsize" : 12.0,
									"patching_rect" : [ 315.0, 390.0, 32.5, 20.0 ],
									"numoutlets" : 1
								}

							}
, 							{
								"box" : 								{
									"maxclass" : "newobj",
									"text" : "t b f",
									"outlettype" : [ "bang", "float" ],
									"fontname" : "Arial",
									"id" : "obj-5",
									"numinlets" : 1,
									"fontsize" : 12.0,
									"patching_rect" : [ 375.0, 270.0, 32.5, 20.0 ],
									"numoutlets" : 2
								}

							}
, 							{
								"box" : 								{
									"maxclass" : "newobj",
									"text" : "- 0.",
									"outlettype" : [ "float" ],
									"fontname" : "Arial",
									"id" : "obj-4",
									"numinlets" : 2,
									"fontsize" : 12.0,
									"patching_rect" : [ 345.0, 315.0, 32.5, 20.0 ],
									"numoutlets" : 1
								}

							}
, 							{
								"box" : 								{
									"maxclass" : "newobj",
									"varname" : "u513001100",
									"text" : "pattr @bindto parent::waveform_select_start",
									"outlettype" : [ "", "", "" ],
									"fontname" : "Arial",
									"id" : "obj-3",
									"numinlets" : 1,
									"fontsize" : 12.0,
									"patching_rect" : [ 375.0, 240.0, 251.0, 20.0 ],
									"numoutlets" : 3,
									"restore" : [ 67.373474 ],
									"saved_object_attributes" : 									{
										"parameter_enable" : 0
									}

								}

							}
, 							{
								"box" : 								{
									"maxclass" : "newobj",
									"varname" : "u113001103",
									"text" : "pattr @bindto parent::waveform_select_end",
									"outlettype" : [ "", "", "" ],
									"fontname" : "Arial",
									"id" : "obj-2",
									"numinlets" : 1,
									"fontsize" : 12.0,
									"patching_rect" : [ 345.0, 210.0, 248.0, 20.0 ],
									"numoutlets" : 3,
									"restore" : [ 81.683228 ],
									"saved_object_attributes" : 									{
										"parameter_enable" : 0
									}

								}

							}
, 							{
								"box" : 								{
									"maxclass" : "inlet",
									"outlettype" : [ "" ],
									"id" : "obj-1",
									"numinlets" : 0,
									"patching_rect" : [ 315.0, 75.0, 25.0, 25.0 ],
									"numoutlets" : 1,
									"comment" : ""
								}

							}
, 							{
								"box" : 								{
									"maxclass" : "newobj",
									"text" : "loadbang",
									"outlettype" : [ "bang" ],
									"fontname" : "Arial",
									"id" : "obj-77",
									"numinlets" : 1,
									"fontsize" : 12.0,
									"patching_rect" : [ 15.0, 15.0, 65.0, 20.0 ],
									"numoutlets" : 1
								}

							}
, 							{
								"box" : 								{
									"maxclass" : "message",
									"text" : "loop 1",
									"outlettype" : [ "" ],
									"fontname" : "Arial",
									"id" : "obj-78",
									"numinlets" : 2,
									"fontsize" : 12.0,
									"patching_rect" : [ 90.0, 45.0, 46.0, 18.0 ],
									"numoutlets" : 1
								}

							}
, 							{
								"box" : 								{
									"maxclass" : "message",
									"text" : "startloop",
									"outlettype" : [ "" ],
									"fontname" : "Arial",
									"id" : "obj-79",
									"numinlets" : 2,
									"fontsize" : 12.0,
									"patching_rect" : [ 15.0, 45.0, 60.0, 18.0 ],
									"numoutlets" : 1
								}

							}
, 							{
								"box" : 								{
									"maxclass" : "newobj",
									"text" : "sig~ 1",
									"outlettype" : [ "signal" ],
									"fontname" : "Arial",
									"id" : "obj-80",
									"numinlets" : 1,
									"fontsize" : 12.0,
									"patching_rect" : [ 150.0, 167.0, 46.0, 20.0 ],
									"numoutlets" : 1
								}

							}
, 							{
								"box" : 								{
									"maxclass" : "newobj",
									"text" : "groove~ reverb_buf 2",
									"outlettype" : [ "signal", "signal", "signal" ],
									"fontname" : "Arial",
									"id" : "obj-81",
									"numinlets" : 3,
									"fontsize" : 12.0,
									"patching_rect" : [ 150.0, 214.0, 125.0, 20.0 ],
									"numoutlets" : 3
								}

							}
, 							{
								"box" : 								{
									"maxclass" : "inlet",
									"outlettype" : [ "float" ],
									"id" : "obj-85",
									"numinlets" : 0,
									"patching_rect" : [ 150.0, 75.0, 25.0, 25.0 ],
									"numoutlets" : 1,
									"comment" : ""
								}

							}
, 							{
								"box" : 								{
									"maxclass" : "inlet",
									"outlettype" : [ "float" ],
									"id" : "obj-86",
									"numinlets" : 0,
									"patching_rect" : [ 203.0, 75.0, 25.0, 25.0 ],
									"numoutlets" : 1,
									"comment" : ""
								}

							}
, 							{
								"box" : 								{
									"maxclass" : "inlet",
									"outlettype" : [ "float" ],
									"id" : "obj-87",
									"numinlets" : 0,
									"patching_rect" : [ 256.0, 75.0, 25.0, 25.0 ],
									"numoutlets" : 1,
									"comment" : ""
								}

							}
, 							{
								"box" : 								{
									"maxclass" : "outlet",
									"id" : "obj-88",
									"numinlets" : 1,
									"patching_rect" : [ 150.0, 300.0, 25.0, 25.0 ],
									"numoutlets" : 0,
									"comment" : ""
								}

							}
, 							{
								"box" : 								{
									"maxclass" : "outlet",
									"id" : "obj-89",
									"numinlets" : 1,
									"patching_rect" : [ 195.0, 300.0, 25.0, 25.0 ],
									"numoutlets" : 0,
									"comment" : ""
								}

							}
 ],
						"lines" : [ 							{
								"patchline" : 								{
									"source" : [ "obj-81", 1 ],
									"destination" : [ "obj-89", 0 ],
									"hidden" : 0,
									"midpoints" : [  ]
								}

							}
, 							{
								"patchline" : 								{
									"source" : [ "obj-81", 0 ],
									"destination" : [ "obj-88", 0 ],
									"hidden" : 0,
									"midpoints" : [  ]
								}

							}
, 							{
								"patchline" : 								{
									"source" : [ "obj-87", 0 ],
									"destination" : [ "obj-81", 2 ],
									"hidden" : 0,
									"midpoints" : [  ]
								}

							}
, 							{
								"patchline" : 								{
									"source" : [ "obj-86", 0 ],
									"destination" : [ "obj-81", 1 ],
									"hidden" : 0,
									"midpoints" : [  ]
								}

							}
, 							{
								"patchline" : 								{
									"source" : [ "obj-78", 0 ],
									"destination" : [ "obj-81", 0 ],
									"hidden" : 0,
									"midpoints" : [  ]
								}

							}
, 							{
								"patchline" : 								{
									"source" : [ "obj-80", 0 ],
									"destination" : [ "obj-81", 0 ],
									"hidden" : 0,
									"midpoints" : [  ]
								}

							}
, 							{
								"patchline" : 								{
									"source" : [ "obj-79", 0 ],
									"destination" : [ "obj-81", 0 ],
									"hidden" : 0,
									"midpoints" : [  ]
								}

							}
, 							{
								"patchline" : 								{
									"source" : [ "obj-1", 0 ],
									"destination" : [ "obj-81", 0 ],
									"hidden" : 0,
									"midpoints" : [  ]
								}

							}
, 							{
								"patchline" : 								{
									"source" : [ "obj-77", 0 ],
									"destination" : [ "obj-79", 0 ],
									"hidden" : 0,
									"midpoints" : [  ]
								}

							}
, 							{
								"patchline" : 								{
									"source" : [ "obj-77", 0 ],
									"destination" : [ "obj-78", 0 ],
									"hidden" : 0,
									"midpoints" : [  ]
								}

							}
, 							{
								"patchline" : 								{
									"source" : [ "obj-85", 0 ],
									"destination" : [ "obj-80", 0 ],
									"hidden" : 0,
									"midpoints" : [  ]
								}

							}
, 							{
								"patchline" : 								{
									"source" : [ "obj-5", 1 ],
									"destination" : [ "obj-4", 1 ],
									"hidden" : 0,
									"midpoints" : [  ]
								}

							}
, 							{
								"patchline" : 								{
									"source" : [ "obj-5", 0 ],
									"destination" : [ "obj-4", 0 ],
									"hidden" : 0,
									"midpoints" : [  ]
								}

							}
, 							{
								"patchline" : 								{
									"source" : [ "obj-2", 0 ],
									"destination" : [ "obj-4", 0 ],
									"hidden" : 0,
									"midpoints" : [  ]
								}

							}
, 							{
								"patchline" : 								{
									"source" : [ "obj-3", 0 ],
									"destination" : [ "obj-5", 0 ],
									"hidden" : 0,
									"midpoints" : [  ]
								}

							}
, 							{
								"patchline" : 								{
									"source" : [ "obj-4", 0 ],
									"destination" : [ "obj-7", 1 ],
									"hidden" : 0,
									"midpoints" : [  ]
								}

							}
, 							{
								"patchline" : 								{
									"source" : [ "obj-7", 0 ],
									"destination" : [ "obj-9", 0 ],
									"hidden" : 0,
									"midpoints" : [  ]
								}

							}
, 							{
								"patchline" : 								{
									"source" : [ "obj-5", 1 ],
									"destination" : [ "obj-9", 1 ],
									"hidden" : 0,
									"midpoints" : [  ]
								}

							}
, 							{
								"patchline" : 								{
									"source" : [ "obj-9", 0 ],
									"destination" : [ "obj-12", 0 ],
									"hidden" : 0,
									"midpoints" : [  ]
								}

							}
, 							{
								"patchline" : 								{
									"source" : [ "obj-12", 0 ],
									"destination" : [ "obj-13", 1 ],
									"hidden" : 0,
									"midpoints" : [  ]
								}

							}
, 							{
								"patchline" : 								{
									"source" : [ "obj-13", 0 ],
									"destination" : [ "obj-11", 0 ],
									"hidden" : 0,
									"midpoints" : [  ]
								}

							}
, 							{
								"patchline" : 								{
									"source" : [ "obj-8", 0 ],
									"destination" : [ "obj-7", 0 ],
									"hidden" : 0,
									"midpoints" : [  ]
								}

							}
, 							{
								"patchline" : 								{
									"source" : [ "obj-81", 2 ],
									"destination" : [ "obj-8", 0 ],
									"hidden" : 0,
									"midpoints" : [  ]
								}

							}
 ]
					}
,
					"saved_object_attributes" : 					{
						"fontname" : "Arial",
						"default_fontface" : 0,
						"globalpatchername" : "",
						"fontface" : 0,
						"default_fontname" : "Arial",
						"fontsize" : 12.0,
						"default_fontsize" : 12.0
					}

				}

			}
, 			{
				"box" : 				{
					"maxclass" : "comment",
					"text" : "display length ",
					"fontname" : "Arial",
					"id" : "obj-82",
					"numinlets" : 1,
					"fontsize" : 12.0,
					"patching_rect" : [ 705.0, 255.0, 90.0, 20.0 ],
					"numoutlets" : 0
				}

			}
, 			{
				"box" : 				{
					"maxclass" : "flonum",
					"varname" : "waveform_display_length",
					"outlettype" : [ "float", "bang" ],
					"minimum" : 0.01,
					"triscale" : 0.9,
					"htextcolor" : [ 0.870588, 0.870588, 0.870588, 1.0 ],
					"fontname" : "Arial",
					"id" : "obj-83",
					"numinlets" : 1,
					"fontsize" : 12.0,
					"patching_rect" : [ 712.0, 278.0, 57.0, 20.0 ],
					"numoutlets" : 2
				}

			}
, 			{
				"box" : 				{
					"maxclass" : "flonum",
					"varname" : "waveform_display_start",
					"outlettype" : [ "float", "bang" ],
					"minimum" : 0.0,
					"triscale" : 0.9,
					"htextcolor" : [ 0.870588, 0.870588, 0.870588, 1.0 ],
					"fontname" : "Arial",
					"id" : "obj-84",
					"numinlets" : 1,
					"fontsize" : 12.0,
					"patching_rect" : [ 607.0, 278.0, 63.0, 20.0 ],
					"numoutlets" : 2
				}

			}
, 			{
				"box" : 				{
					"maxclass" : "comment",
					"text" : "display start ",
					"fontname" : "Arial",
					"id" : "obj-69",
					"numinlets" : 1,
					"fontsize" : 12.0,
					"patching_rect" : [ 603.0, 255.0, 80.0, 20.0 ],
					"numoutlets" : 0
				}

			}
, 			{
				"box" : 				{
					"maxclass" : "flonum",
					"outlettype" : [ "float", "bang" ],
					"triscale" : 0.9,
					"htextcolor" : [ 0.870588, 0.870588, 0.870588, 1.0 ],
					"fontname" : "Arial",
					"id" : "obj-32",
					"presentation_rect" : [ 15.0, 210.0, 46.0, 20.0 ],
					"numinlets" : 1,
					"fontsize" : 12.0,
					"patching_rect" : [ 607.0, 503.0, 53.0, 20.0 ],
					"numoutlets" : 2,
					"presentation" : 1
				}

			}
, 			{
				"box" : 				{
					"maxclass" : "waveform~",
					"varname" : "waveform",
					"outlettype" : [ "float", "float", "float", "float", "list", "" ],
					"tickmarkcolor" : [ 1.0, 1.0, 1.0, 0.584314 ],
					"id" : "obj-37",
					"textcolor" : [  ],
					"presentation_rect" : [ 15.0, 75.0, 541.0, 106.0 ],
					"bgcolor" : [ 0.0, 0.0, 0.0, 1.0 ],
					"labelbgcolor" : [ 0.215686, 0.215686, 0.215686, 1.0 ],
					"snapto" : 2,
					"numinlets" : 5,
					"selectioncolor" : [ 1.0, 0.843137, 0.843137, 0.360784 ],
					"labeltextcolor" : [ 1.0, 1.0, 1.0, 1.0 ],
					"buffername" : "reverb_buf",
					"fontface" : 1,
					"fontsize" : 12.0,
					"patching_rect" : [ 607.0, 353.0, 439.0, 103.0 ],
					"waveformcolor" : [ 0.098039, 1.0, 0.0, 1.0 ],
					"numoutlets" : 6,
					"presentation" : 1,
					"setmode" : 3
				}

			}
, 			{
				"box" : 				{
					"maxclass" : "comment",
					"text" : "open csd file:",
					"fontname" : "Arial",
					"id" : "obj-3",
					"presentation_rect" : [ 436.0, 48.0, 86.0, 20.0 ],
					"numinlets" : 1,
					"fontsize" : 12.0,
					"patching_rect" : [ 7.0, 433.0, 83.0, 20.0 ],
					"numoutlets" : 0,
					"presentation" : 1
				}

			}
, 			{
				"box" : 				{
					"maxclass" : "message",
					"text" : "open",
					"outlettype" : [ "" ],
					"fontname" : "Arial",
					"id" : "obj-6",
					"presentation_rect" : [ 516.0, 48.0, 38.0, 18.0 ],
					"bgcolor" : [ 0.0, 0.94902, 1.0, 1.0 ],
					"numinlets" : 2,
					"fontsize" : 12.0,
					"patching_rect" : [ 90.0, 435.0, 38.0, 18.0 ],
					"numoutlets" : 1,
					"presentation" : 1
				}

			}
, 			{
				"box" : 				{
					"maxclass" : "comment",
					"varname" : "autohelp_top_title",
					"text" : "reverb",
					"fontname" : "Arial",
					"id" : "obj-63",
					"textcolor" : [ 0.93, 0.93, 0.97, 1.0 ],
					"presentation_rect" : [ 20.0, 3.0, 121.0, 41.0 ],
					"frgb" : [ 0.93, 0.93, 0.97, 1.0 ],
					"numinlets" : 1,
					"fontface" : 3,
					"fontsize" : 30.0,
					"patching_rect" : [ 795.0, 30.0, 121.0, 41.0 ],
					"numoutlets" : 0,
					"presentation" : 1
				}

			}
, 			{
				"box" : 				{
					"maxclass" : "comment",
					"text" : "amp",
					"fontname" : "Arial",
					"id" : "obj-31",
					"presentation_rect" : [ 516.0, 258.0, 36.0, 20.0 ],
					"numinlets" : 1,
					"fontsize" : 12.0,
					"patching_rect" : [ 287.0, 401.0, 36.0, 20.0 ],
					"numoutlets" : 0,
					"presentation" : 1
				}

			}
, 			{
				"box" : 				{
					"maxclass" : "number",
					"outlettype" : [ "int", "bang" ],
					"maximum" : 12,
					"fontname" : "Arial",
					"id" : "obj-25",
					"textcolor" : [ 0.784314, 0.0, 0.0, 1.0 ],
					"presentation_rect" : [ 510.0, 240.0, 46.0, 20.0 ],
					"numinlets" : 1,
					"fontface" : 1,
					"fontsize" : 12.0,
					"patching_rect" : [ 227.0, 401.0, 50.0, 20.0 ],
					"numoutlets" : 2,
					"presentation" : 1
				}

			}
, 			{
				"box" : 				{
					"maxclass" : "message",
					"text" : "clearall",
					"outlettype" : [ "" ],
					"fontname" : "Arial",
					"id" : "obj-14",
					"numinlets" : 2,
					"fontsize" : 12.0,
					"patching_rect" : [ 495.0, 135.0, 50.0, 18.0 ],
					"numoutlets" : 1
				}

			}
, 			{
				"box" : 				{
					"maxclass" : "newobj",
					"text" : "prepend c",
					"outlettype" : [ "" ],
					"fontname" : "Arial",
					"id" : "obj-13",
					"numinlets" : 1,
					"fontsize" : 12.0,
					"patching_rect" : [ 87.0, 406.0, 65.0, 20.0 ],
					"numoutlets" : 1
				}

			}
, 			{
				"box" : 				{
					"maxclass" : "message",
					"text" : "tab $1",
					"outlettype" : [ "" ],
					"fontname" : "Arial",
					"id" : "obj-12",
					"presentation_rect" : [ 15.0, 314.0, 53.0, 18.0 ],
					"numinlets" : 2,
					"fontsize" : 12.0,
					"patching_rect" : [ 315.0, 240.0, 44.0, 18.0 ],
					"numoutlets" : 1,
					"presentation" : 1
				}

			}
, 			{
				"box" : 				{
					"maxclass" : "umenu",
					"items" : [ "table", "set", 1, ",", "table", "set", 2 ],
					"outlettype" : [ "int", "", "" ],
					"types" : [  ],
					"fontname" : "Arial",
					"id" : "obj-11",
					"presentation_rect" : [ 15.0, 291.0, 98.0, 20.0 ],
					"numinlets" : 1,
					"fontsize" : 12.0,
					"patching_rect" : [ 315.0, 210.0, 98.0, 20.0 ],
					"numoutlets" : 3,
					"presentation" : 1
				}

			}
, 			{
				"box" : 				{
					"maxclass" : "comment",
					"text" : "CSIN",
					"fontname" : "Arial",
					"id" : "obj-10",
					"textcolor" : [ 1.0, 0.0, 0.0, 1.0 ],
					"frgb" : [ 1.0, 0.0, 0.0, 1.0 ],
					"numinlets" : 1,
					"fontsize" : 12.0,
					"patching_rect" : [ 77.0, 356.0, 40.0, 20.0 ],
					"numoutlets" : 0
				}

			}
, 			{
				"box" : 				{
					"maxclass" : "message",
					"text" : ";\r\ndsp open",
					"linecount" : 2,
					"presentation_linecount" : 2,
					"outlettype" : [ "" ],
					"fontname" : "Arial",
					"id" : "obj-55",
					"presentation_rect" : [ 450.0, 300.0, 62.0, 32.0 ],
					"numinlets" : 2,
					"fontsize" : 12.0,
					"patching_rect" : [ 212.0, 446.0, 62.0, 32.0 ],
					"numoutlets" : 1,
					"presentation" : 1
				}

			}
, 			{
				"box" : 				{
					"maxclass" : "newobj",
					"text" : "p amp",
					"outlettype" : [ "signal", "signal" ],
					"fontname" : "Arial",
					"id" : "obj-7",
					"numinlets" : 3,
					"fontsize" : 12.0,
					"patching_rect" : [ 152.0, 401.0, 64.0, 20.0 ],
					"numoutlets" : 2,
					"patcher" : 					{
						"fileversion" : 1,
						"rect" : [ 354.0, 179.0, 384.0, 312.0 ],
						"bglocked" : 0,
						"defrect" : [ 354.0, 179.0, 384.0, 312.0 ],
						"openrect" : [ 0.0, 0.0, 0.0, 0.0 ],
						"openinpresentation" : 0,
						"default_fontsize" : 12.0,
						"default_fontface" : 0,
						"default_fontname" : "Arial",
						"gridonopen" : 0,
						"gridsize" : [ 15.0, 15.0 ],
						"gridsnaponopen" : 0,
						"toolbarvisible" : 1,
						"boxanimatetime" : 200,
						"imprint" : 0,
						"enablehscroll" : 1,
						"enablevscroll" : 1,
						"devicewidth" : 0.0,
						"boxes" : [ 							{
								"box" : 								{
									"maxclass" : "newobj",
									"text" : "dbtoa",
									"outlettype" : [ "" ],
									"fontname" : "Arial",
									"id" : "obj-10",
									"numinlets" : 1,
									"fontsize" : 12.0,
									"patching_rect" : [ 180.0, 90.0, 41.0, 20.0 ],
									"numoutlets" : 1
								}

							}
, 							{
								"box" : 								{
									"maxclass" : "newobj",
									"text" : "*~ 1.",
									"outlettype" : [ "signal" ],
									"fontname" : "Arial",
									"id" : "obj-9",
									"numinlets" : 2,
									"fontsize" : 12.0,
									"patching_rect" : [ 120.0, 120.0, 35.0, 20.0 ],
									"numoutlets" : 1
								}

							}
, 							{
								"box" : 								{
									"maxclass" : "newobj",
									"text" : "*~ 1.",
									"outlettype" : [ "signal" ],
									"fontname" : "Arial",
									"id" : "obj-8",
									"numinlets" : 2,
									"fontsize" : 12.0,
									"patching_rect" : [ 60.0, 120.0, 35.0, 20.0 ],
									"numoutlets" : 1
								}

							}
, 							{
								"box" : 								{
									"maxclass" : "outlet",
									"id" : "obj-7",
									"numinlets" : 1,
									"patching_rect" : [ 120.0, 195.0, 25.0, 25.0 ],
									"numoutlets" : 0,
									"comment" : ""
								}

							}
, 							{
								"box" : 								{
									"maxclass" : "outlet",
									"id" : "obj-6",
									"numinlets" : 1,
									"patching_rect" : [ 60.0, 195.0, 25.0, 25.0 ],
									"numoutlets" : 0,
									"comment" : ""
								}

							}
, 							{
								"box" : 								{
									"maxclass" : "inlet",
									"outlettype" : [ "int" ],
									"id" : "obj-5",
									"numinlets" : 0,
									"patching_rect" : [ 180.0, 60.0, 25.0, 25.0 ],
									"numoutlets" : 1,
									"comment" : ""
								}

							}
, 							{
								"box" : 								{
									"maxclass" : "inlet",
									"outlettype" : [ "signal" ],
									"id" : "obj-4",
									"numinlets" : 0,
									"patching_rect" : [ 120.0, 60.0, 25.0, 25.0 ],
									"numoutlets" : 1,
									"comment" : ""
								}

							}
, 							{
								"box" : 								{
									"maxclass" : "inlet",
									"outlettype" : [ "signal" ],
									"id" : "obj-3",
									"numinlets" : 0,
									"patching_rect" : [ 60.0, 60.0, 25.0, 25.0 ],
									"numoutlets" : 1,
									"comment" : ""
								}

							}
 ],
						"lines" : [ 							{
								"patchline" : 								{
									"source" : [ "obj-10", 0 ],
									"destination" : [ "obj-8", 1 ],
									"hidden" : 0,
									"midpoints" : [  ]
								}

							}
, 							{
								"patchline" : 								{
									"source" : [ "obj-10", 0 ],
									"destination" : [ "obj-9", 1 ],
									"hidden" : 0,
									"midpoints" : [  ]
								}

							}
, 							{
								"patchline" : 								{
									"source" : [ "obj-5", 0 ],
									"destination" : [ "obj-10", 0 ],
									"hidden" : 0,
									"midpoints" : [  ]
								}

							}
, 							{
								"patchline" : 								{
									"source" : [ "obj-9", 0 ],
									"destination" : [ "obj-7", 0 ],
									"hidden" : 0,
									"midpoints" : [  ]
								}

							}
, 							{
								"patchline" : 								{
									"source" : [ "obj-8", 0 ],
									"destination" : [ "obj-6", 0 ],
									"hidden" : 0,
									"midpoints" : [  ]
								}

							}
, 							{
								"patchline" : 								{
									"source" : [ "obj-4", 0 ],
									"destination" : [ "obj-9", 0 ],
									"hidden" : 0,
									"midpoints" : [  ]
								}

							}
, 							{
								"patchline" : 								{
									"source" : [ "obj-3", 0 ],
									"destination" : [ "obj-8", 0 ],
									"hidden" : 0,
									"midpoints" : [  ]
								}

							}
 ]
					}
,
					"saved_object_attributes" : 					{
						"fontname" : "Arial",
						"default_fontface" : 0,
						"globalpatchername" : "",
						"fontface" : 0,
						"default_fontname" : "Arial",
						"fontsize" : 12.0,
						"default_fontsize" : 12.0
					}

				}

			}
, 			{
				"box" : 				{
					"maxclass" : "newobj",
					"text" : "pattrforward CSIN",
					"outlettype" : [ "" ],
					"fontname" : "Arial",
					"id" : "obj-53",
					"numinlets" : 1,
					"fontsize" : 12.0,
					"patching_rect" : [ 15.0, 270.0, 107.0, 20.0 ],
					"numoutlets" : 1
				}

			}
, 			{
				"box" : 				{
					"maxclass" : "newobj",
					"varname" : "CSIN",
					"text" : "t l",
					"outlettype" : [ "" ],
					"fontname" : "Arial",
					"id" : "obj-52",
					"numinlets" : 1,
					"fontsize" : 12.0,
					"patching_rect" : [ 87.0, 376.0, 19.0, 20.0 ],
					"numoutlets" : 1
				}

			}
, 			{
				"box" : 				{
					"maxclass" : "ezdac~",
					"id" : "obj-1",
					"presentation_rect" : [ 450.0, 240.0, 56.0, 56.0 ],
					"bgcolor" : [ 0.0, 0.0, 0.0, 1.0 ],
					"offgradcolor1" : [ 0.0, 0.0, 0.0, 1.0 ],
					"ongradcolor1" : [ 1.0, 0.0, 0.0, 1.0 ],
					"numinlets" : 2,
					"ongradcolor2" : [ 0.709804, 0.709804, 0.0, 1.0 ],
					"offgradcolor2" : [ 0.0, 0.0, 0.0, 1.0 ],
					"patching_rect" : [ 152.0, 431.0, 56.0, 56.0 ],
					"numoutlets" : 0,
					"presentation" : 1
				}

			}
, 			{
				"box" : 				{
					"maxclass" : "message",
					"text" : "dist $1",
					"outlettype" : [ "" ],
					"fontname" : "Arial",
					"id" : "obj-4",
					"presentation_rect" : [ 255.0, 263.0, 53.0, 18.0 ],
					"numinlets" : 2,
					"fontsize" : 12.0,
					"patching_rect" : [ 255.0, 240.0, 47.0, 18.0 ],
					"numoutlets" : 1,
					"presentation" : 1
				}

			}
, 			{
				"box" : 				{
					"maxclass" : "flonum",
					"outlettype" : [ "float", "bang" ],
					"minimum" : 0.001,
					"maximum" : 15.0,
					"triscale" : 0.9,
					"htextcolor" : [ 0.870588, 0.870588, 0.870588, 1.0 ],
					"fontname" : "Arial",
					"id" : "obj-5",
					"presentation_rect" : [ 255.0, 240.0, 52.0, 20.0 ],
					"bgcolor" : [ 0.866667, 0.866667, 0.866667, 1.0 ],
					"numinlets" : 1,
					"fontsize" : 12.0,
					"patching_rect" : [ 255.0, 210.0, 52.0, 20.0 ],
					"numoutlets" : 2,
					"presentation" : 1
				}

			}
, 			{
				"box" : 				{
					"maxclass" : "message",
					"text" : "pan $1",
					"outlettype" : [ "" ],
					"fontname" : "Arial",
					"id" : "obj-8",
					"presentation_rect" : [ 195.0, 263.0, 51.0, 18.0 ],
					"numinlets" : 2,
					"fontsize" : 12.0,
					"patching_rect" : [ 195.0, 240.0, 48.0, 18.0 ],
					"numoutlets" : 1,
					"presentation" : 1
				}

			}
, 			{
				"box" : 				{
					"maxclass" : "flonum",
					"outlettype" : [ "float", "bang" ],
					"minimum" : -360.0,
					"maximum" : 360.0,
					"triscale" : 0.9,
					"htextcolor" : [ 0.870588, 0.870588, 0.870588, 1.0 ],
					"fontname" : "Arial",
					"id" : "obj-9",
					"presentation_rect" : [ 195.0, 240.0, 51.0, 20.0 ],
					"bgcolor" : [ 0.866667, 0.866667, 0.866667, 1.0 ],
					"numinlets" : 1,
					"fontsize" : 12.0,
					"patching_rect" : [ 195.0, 210.0, 51.0, 20.0 ],
					"numoutlets" : 2,
					"presentation" : 1
				}

			}
, 			{
				"box" : 				{
					"maxclass" : "message",
					"text" : "H:/samples/Recordings/Understanding/Achantar_2.aiff",
					"outlettype" : [ "" ],
					"fontname" : "Arial",
					"id" : "obj-15",
					"presentation_rect" : [ 15.0, 182.0, 540.0, 18.0 ],
					"bgcolor" : [ 0.913725, 1.0, 0.65098, 1.0 ],
					"numinlets" : 2,
					"fontface" : 1,
					"fontsize" : 12.0,
					"patching_rect" : [ 585.0, 135.0, 400.0, 18.0 ],
					"numoutlets" : 1,
					"presentation" : 1
				}

			}
, 			{
				"box" : 				{
					"maxclass" : "flonum",
					"outlettype" : [ "float", "bang" ],
					"minimum" : 0.0,
					"maximum" : 0.99,
					"triscale" : 0.9,
					"htextcolor" : [ 0.870588, 0.870588, 0.870588, 1.0 ],
					"fontname" : "Arial",
					"id" : "obj-27",
					"presentation_rect" : [ 135.0, 240.0, 52.0, 20.0 ],
					"bgcolor" : [ 0.866667, 0.866667, 0.866667, 1.0 ],
					"numinlets" : 1,
					"fontsize" : 12.0,
					"patching_rect" : [ 135.0, 210.0, 52.0, 20.0 ],
					"numoutlets" : 2,
					"presentation" : 1
				}

			}
, 			{
				"box" : 				{
					"maxclass" : "message",
					"text" : "hiatt $1",
					"outlettype" : [ "" ],
					"fontname" : "Arial",
					"id" : "obj-30",
					"presentation_rect" : [ 135.0, 263.0, 57.0, 18.0 ],
					"numinlets" : 2,
					"fontsize" : 12.0,
					"patching_rect" : [ 135.0, 240.0, 50.0, 18.0 ],
					"numoutlets" : 1,
					"presentation" : 1
				}

			}
, 			{
				"box" : 				{
					"maxclass" : "scope~",
					"calccount" : 16,
					"rounded" : 0,
					"gridcolor" : [ 0.090196, 0.078431, 0.078431, 1.0 ],
					"id" : "obj-36",
					"presentation_rect" : [ 315.0, 240.0, 125.0, 90.0 ],
					"bgcolor" : [ 0.0, 0.0, 0.0, 1.0 ],
					"numinlets" : 2,
					"patching_rect" : [ 332.0, 401.0, 125.0, 90.0 ],
					"numoutlets" : 0,
					"presentation" : 1
				}

			}
, 			{
				"box" : 				{
					"maxclass" : "preset",
					"outlettype" : [ "preset", "int", "preset", "int" ],
					"active1" : [ 0.0, 0.203922, 1.0, 1.0 ],
					"emptycolor" : [ 1.0, 1.0, 1.0, 1.0 ],
					"spacing" : 2,
					"id" : "obj-38",
					"presentation_rect" : [ 148.0, 13.0, 80.0, 20.0 ],
					"margin" : 4,
					"numinlets" : 1,
					"active2" : [ 0.0, 0.070588, 1.0, 1.0 ],
					"bubblesize" : 12,
					"patching_rect" : [ 450.0, 165.0, 77.0, 21.0 ],
					"numoutlets" : 4,
					"presentation" : 1,
					"preset_data" : [ 						{
							"number" : 1,
							"data" : [ 5, "obj-49", "flonum", "float", 0.8, 5, "obj-48", "flonum", "float", 1.46, 5, "obj-27", "flonum", "float", 0.32, 5, "obj-9", "flonum", "float", 0.0, 5, "obj-5", "flonum", "float", 0.2, 5, "obj-11", "umenu", "int", 0, 5, "obj-25", "number", "int", 0, 5, "obj-32", "flonum", "float", 1.0 ]
						}
, 						{
							"number" : 2,
							"data" : [ 5, "obj-49", "flonum", "float", 0.81, 5, "obj-48", "flonum", "float", 0.26, 5, "obj-27", "flonum", "float", 0.087, 5, "<invalid>", "toggle", "int", 1, 5, "obj-9", "flonum", "float", 8.25, 5, "obj-5", "flonum", "float", 0.03, 5, "obj-11", "umenu", "int", 1, 5, "obj-25", "number", "int", 0 ]
						}
, 						{
							"number" : 3,
							"data" : [ 5, "obj-49", "flonum", "float", 0.8, 5, "obj-48", "flonum", "float", 4.2, 5, "obj-27", "flonum", "float", 0.32, 5, "<invalid>", "toggle", "int", 1, 5, "obj-9", "flonum", "float", 0.0, 5, "obj-5", "flonum", "float", 0.2, 5, "obj-11", "umenu", "int", 0, 5, "obj-25", "number", "int", 0 ]
						}
 ]
				}

			}
, 			{
				"box" : 				{
					"maxclass" : "message",
					"text" : "1",
					"outlettype" : [ "" ],
					"fontname" : "Arial",
					"id" : "obj-39",
					"numinlets" : 2,
					"fontsize" : 12.0,
					"patching_rect" : [ 450.0, 135.0, 32.5, 18.0 ],
					"numoutlets" : 1
				}

			}
, 			{
				"box" : 				{
					"maxclass" : "newobj",
					"text" : "loadbang",
					"outlettype" : [ "bang" ],
					"fontname" : "Arial",
					"id" : "obj-40",
					"numinlets" : 1,
					"fontsize" : 12.0,
					"patching_rect" : [ 450.0, 105.0, 64.0, 20.0 ],
					"numoutlets" : 1
				}

			}
, 			{
				"box" : 				{
					"maxclass" : "message",
					"text" : "feed $1",
					"outlettype" : [ "" ],
					"fontname" : "Arial",
					"id" : "obj-44",
					"presentation_rect" : [ 15.0, 263.0, 54.0, 18.0 ],
					"numinlets" : 2,
					"fontsize" : 12.0,
					"patching_rect" : [ 15.0, 240.0, 51.0, 18.0 ],
					"numoutlets" : 1,
					"presentation" : 1
				}

			}
, 			{
				"box" : 				{
					"maxclass" : "message",
					"text" : "time $1",
					"outlettype" : [ "" ],
					"fontname" : "Arial",
					"id" : "obj-45",
					"presentation_rect" : [ 75.0, 263.0, 54.0, 18.0 ],
					"numinlets" : 2,
					"fontsize" : 12.0,
					"patching_rect" : [ 75.0, 240.0, 51.0, 18.0 ],
					"numoutlets" : 1,
					"presentation" : 1
				}

			}
, 			{
				"box" : 				{
					"maxclass" : "message",
					"text" : "stop",
					"outlettype" : [ "" ],
					"fontname" : "Arial",
					"id" : "obj-46",
					"numinlets" : 2,
					"fontsize" : 12.0,
					"patching_rect" : [ 150.0, 330.0, 36.0, 18.0 ],
					"numoutlets" : 1
				}

			}
, 			{
				"box" : 				{
					"maxclass" : "message",
					"text" : "start",
					"outlettype" : [ "" ],
					"fontname" : "Arial",
					"id" : "obj-47",
					"numinlets" : 2,
					"fontsize" : 12.0,
					"patching_rect" : [ 195.0, 330.0, 40.0, 18.0 ],
					"numoutlets" : 1
				}

			}
, 			{
				"box" : 				{
					"maxclass" : "flonum",
					"outlettype" : [ "float", "bang" ],
					"minimum" : 0.05,
					"maximum" : 3000.0,
					"triscale" : 0.9,
					"htextcolor" : [ 0.870588, 0.870588, 0.870588, 1.0 ],
					"fontname" : "Arial",
					"id" : "obj-48",
					"presentation_rect" : [ 75.0, 240.0, 52.0, 20.0 ],
					"bgcolor" : [ 0.866667, 0.866667, 0.866667, 1.0 ],
					"numinlets" : 1,
					"fontsize" : 12.0,
					"patching_rect" : [ 75.0, 210.0, 52.0, 20.0 ],
					"numoutlets" : 2,
					"presentation" : 1
				}

			}
, 			{
				"box" : 				{
					"maxclass" : "flonum",
					"outlettype" : [ "float", "bang" ],
					"minimum" : 0.0,
					"maximum" : 2.0,
					"triscale" : 0.9,
					"htextcolor" : [ 0.870588, 0.870588, 0.870588, 1.0 ],
					"fontname" : "Arial",
					"id" : "obj-49",
					"presentation_rect" : [ 15.0, 240.0, 52.0, 20.0 ],
					"bgcolor" : [ 0.866667, 0.866667, 0.866667, 1.0 ],
					"numinlets" : 1,
					"fontsize" : 12.0,
					"patching_rect" : [ 15.0, 210.0, 52.0, 20.0 ],
					"numoutlets" : 2,
					"presentation" : 1
				}

			}
, 			{
				"box" : 				{
					"maxclass" : "newobj",
					"text" : "csound~ @io 2 \"-m0 reverb.csd\"",
					"outlettype" : [ "signal", "signal", "list", "int", "bang", "bang" ],
					"fontname" : "Arial",
					"id" : "obj-51",
					"numinlets" : 2,
					"fontsize" : 12.0,
					"patching_rect" : [ 150.0, 360.0, 241.0, 20.0 ],
					"numoutlets" : 6
				}

			}
, 			{
				"box" : 				{
					"maxclass" : "panel",
					"varname" : "autohelp_top_panel",
					"grad2" : [ 0.05098, 1.0, 0.0, 1.0 ],
					"background" : 1,
					"id" : "obj-64",
					"presentation_rect" : [ 15.0, 0.0, 539.0, 45.0 ],
					"numinlets" : 1,
					"mode" : 1,
					"patching_rect" : [ 790.0, 27.0, 205.0, 45.0 ],
					"grad1" : [ 0.0, 0.0, 0.0, 1.0 ],
					"numoutlets" : 0,
					"presentation" : 1
				}

			}
, 			{
				"box" : 				{
					"maxclass" : "dropfile",
					"outlettype" : [ "", "" ],
					"background" : 1,
					"types" : [  ],
					"id" : "obj-33",
					"presentation_rect" : [ 15.0, 75.0, 540.0, 106.0 ],
					"numinlets" : 1,
					"patching_rect" : [ 583.0, 4.0, 179.0, 96.0 ],
					"numoutlets" : 2,
					"presentation" : 1
				}

			}
, 			{
				"box" : 				{
					"maxclass" : "message",
					"text" : "setmode $1",
					"outlettype" : [ "" ],
					"fontname" : "Arial",
					"id" : "obj-17",
					"numinlets" : 2,
					"fontsize" : 12.0,
					"patching_rect" : [ 1005.0, 315.0, 76.0, 18.0 ],
					"numoutlets" : 1
				}

			}
 ],
		"lines" : [ 			{
				"patchline" : 				{
					"source" : [ "obj-38", 2 ],
					"destination" : [ "obj-84", 0 ],
					"hidden" : 0,
					"midpoints" : [  ]
				}

			}
, 			{
				"patchline" : 				{
					"source" : [ "obj-38", 2 ],
					"destination" : [ "obj-83", 0 ],
					"hidden" : 0,
					"midpoints" : [  ]
				}

			}
, 			{
				"patchline" : 				{
					"source" : [ "obj-38", 2 ],
					"destination" : [ "obj-99", 0 ],
					"hidden" : 0,
					"midpoints" : [  ]
				}

			}
, 			{
				"patchline" : 				{
					"source" : [ "obj-38", 2 ],
					"destination" : [ "obj-98", 0 ],
					"hidden" : 0,
					"midpoints" : [  ]
				}

			}
, 			{
				"patchline" : 				{
					"source" : [ "obj-40", 0 ],
					"destination" : [ "obj-39", 0 ],
					"hidden" : 0,
					"midpoints" : [  ]
				}

			}
, 			{
				"patchline" : 				{
					"source" : [ "obj-90", 1 ],
					"destination" : [ "obj-51", 1 ],
					"hidden" : 0,
					"midpoints" : [  ]
				}

			}
, 			{
				"patchline" : 				{
					"source" : [ "obj-90", 0 ],
					"destination" : [ "obj-51", 0 ],
					"hidden" : 0,
					"midpoints" : [  ]
				}

			}
, 			{
				"patchline" : 				{
					"source" : [ "obj-46", 0 ],
					"destination" : [ "obj-51", 0 ],
					"hidden" : 0,
					"midpoints" : [  ]
				}

			}
, 			{
				"patchline" : 				{
					"source" : [ "obj-47", 0 ],
					"destination" : [ "obj-51", 0 ],
					"hidden" : 0,
					"midpoints" : [  ]
				}

			}
, 			{
				"patchline" : 				{
					"source" : [ "obj-15", 0 ],
					"destination" : [ "obj-57", 0 ],
					"hidden" : 0,
					"midpoints" : [  ]
				}

			}
, 			{
				"patchline" : 				{
					"source" : [ "obj-71", 0 ],
					"destination" : [ "obj-15", 0 ],
					"hidden" : 0,
					"midpoints" : [  ]
				}

			}
, 			{
				"patchline" : 				{
					"source" : [ "obj-33", 0 ],
					"destination" : [ "obj-71", 0 ],
					"hidden" : 0,
					"midpoints" : [  ]
				}

			}
, 			{
				"patchline" : 				{
					"source" : [ "obj-37", 0 ],
					"destination" : [ "obj-79", 0 ],
					"hidden" : 0,
					"midpoints" : [  ]
				}

			}
, 			{
				"patchline" : 				{
					"source" : [ "obj-37", 1 ],
					"destination" : [ "obj-79", 1 ],
					"hidden" : 0,
					"midpoints" : [  ]
				}

			}
, 			{
				"patchline" : 				{
					"source" : [ "obj-37", 2 ],
					"destination" : [ "obj-79", 2 ],
					"hidden" : 0,
					"midpoints" : [  ]
				}

			}
, 			{
				"patchline" : 				{
					"source" : [ "obj-37", 3 ],
					"destination" : [ "obj-79", 3 ],
					"hidden" : 0,
					"midpoints" : [  ]
				}

			}
, 			{
				"patchline" : 				{
					"source" : [ "obj-79", 0 ],
					"destination" : [ "obj-84", 0 ],
					"hidden" : 0,
					"midpoints" : [  ]
				}

			}
, 			{
				"patchline" : 				{
					"source" : [ "obj-79", 1 ],
					"destination" : [ "obj-83", 0 ],
					"hidden" : 0,
					"midpoints" : [  ]
				}

			}
, 			{
				"patchline" : 				{
					"source" : [ "obj-79", 2 ],
					"destination" : [ "obj-99", 0 ],
					"hidden" : 0,
					"midpoints" : [  ]
				}

			}
, 			{
				"patchline" : 				{
					"source" : [ "obj-79", 3 ],
					"destination" : [ "obj-98", 0 ],
					"hidden" : 0,
					"midpoints" : [  ]
				}

			}
, 			{
				"patchline" : 				{
					"source" : [ "obj-73", 0 ],
					"destination" : [ "obj-37", 3 ],
					"hidden" : 0,
					"midpoints" : [  ]
				}

			}
, 			{
				"patchline" : 				{
					"source" : [ "obj-72", 0 ],
					"destination" : [ "obj-37", 2 ],
					"hidden" : 0,
					"midpoints" : [  ]
				}

			}
, 			{
				"patchline" : 				{
					"source" : [ "obj-20", 0 ],
					"destination" : [ "obj-37", 1 ],
					"hidden" : 0,
					"midpoints" : [  ]
				}

			}
, 			{
				"patchline" : 				{
					"source" : [ "obj-83", 0 ],
					"destination" : [ "obj-20", 0 ],
					"hidden" : 0,
					"midpoints" : [  ]
				}

			}
, 			{
				"patchline" : 				{
					"source" : [ "obj-99", 0 ],
					"destination" : [ "obj-72", 0 ],
					"hidden" : 0,
					"midpoints" : [  ]
				}

			}
, 			{
				"patchline" : 				{
					"source" : [ "obj-98", 0 ],
					"destination" : [ "obj-73", 0 ],
					"hidden" : 0,
					"midpoints" : [  ]
				}

			}
, 			{
				"patchline" : 				{
					"source" : [ "obj-26", 0 ],
					"destination" : [ "obj-37", 0 ],
					"hidden" : 0,
					"midpoints" : [  ]
				}

			}
, 			{
				"patchline" : 				{
					"source" : [ "obj-84", 0 ],
					"destination" : [ "obj-26", 0 ],
					"hidden" : 0,
					"midpoints" : [  ]
				}

			}
, 			{
				"patchline" : 				{
					"source" : [ "obj-91", 0 ],
					"destination" : [ "obj-90", 3 ],
					"hidden" : 0,
					"midpoints" : [  ]
				}

			}
, 			{
				"patchline" : 				{
					"source" : [ "obj-32", 0 ],
					"destination" : [ "obj-90", 0 ],
					"hidden" : 0,
					"midpoints" : [  ]
				}

			}
, 			{
				"patchline" : 				{
					"source" : [ "obj-37", 2 ],
					"destination" : [ "obj-90", 1 ],
					"hidden" : 0,
					"midpoints" : [  ]
				}

			}
, 			{
				"patchline" : 				{
					"source" : [ "obj-37", 3 ],
					"destination" : [ "obj-90", 2 ],
					"hidden" : 0,
					"midpoints" : [  ]
				}

			}
, 			{
				"patchline" : 				{
					"source" : [ "obj-18", 0 ],
					"destination" : [ "obj-37", 0 ],
					"hidden" : 0,
					"midpoints" : [  ]
				}

			}
, 			{
				"patchline" : 				{
					"source" : [ "obj-6", 0 ],
					"destination" : [ "obj-51", 0 ],
					"hidden" : 0,
					"midpoints" : [  ]
				}

			}
, 			{
				"patchline" : 				{
					"source" : [ "obj-40", 0 ],
					"destination" : [ "obj-47", 0 ],
					"hidden" : 0,
					"midpoints" : [  ]
				}

			}
, 			{
				"patchline" : 				{
					"source" : [ "obj-4", 0 ],
					"destination" : [ "obj-53", 0 ],
					"hidden" : 0,
					"midpoints" : [ 264.5, 263.5, 24.5, 263.5 ]
				}

			}
, 			{
				"patchline" : 				{
					"source" : [ "obj-8", 0 ],
					"destination" : [ "obj-53", 0 ],
					"hidden" : 0,
					"midpoints" : [ 204.5, 263.5, 24.5, 263.5 ]
				}

			}
, 			{
				"patchline" : 				{
					"source" : [ "obj-30", 0 ],
					"destination" : [ "obj-53", 0 ],
					"hidden" : 0,
					"midpoints" : [ 144.5, 263.5, 24.5, 263.5 ]
				}

			}
, 			{
				"patchline" : 				{
					"source" : [ "obj-45", 0 ],
					"destination" : [ "obj-53", 0 ],
					"hidden" : 0,
					"midpoints" : [ 84.5, 263.5, 24.5, 263.5 ]
				}

			}
, 			{
				"patchline" : 				{
					"source" : [ "obj-44", 0 ],
					"destination" : [ "obj-53", 0 ],
					"hidden" : 0,
					"midpoints" : [ 24.5, 263.5, 24.5, 263.5 ]
				}

			}
, 			{
				"patchline" : 				{
					"source" : [ "obj-5", 0 ],
					"destination" : [ "obj-4", 0 ],
					"hidden" : 0,
					"midpoints" : [  ]
				}

			}
, 			{
				"patchline" : 				{
					"source" : [ "obj-9", 0 ],
					"destination" : [ "obj-8", 0 ],
					"hidden" : 0,
					"midpoints" : [  ]
				}

			}
, 			{
				"patchline" : 				{
					"source" : [ "obj-27", 0 ],
					"destination" : [ "obj-30", 0 ],
					"hidden" : 0,
					"midpoints" : [  ]
				}

			}
, 			{
				"patchline" : 				{
					"source" : [ "obj-48", 0 ],
					"destination" : [ "obj-45", 0 ],
					"hidden" : 0,
					"midpoints" : [  ]
				}

			}
, 			{
				"patchline" : 				{
					"source" : [ "obj-39", 0 ],
					"destination" : [ "obj-38", 0 ],
					"hidden" : 0,
					"midpoints" : [  ]
				}

			}
, 			{
				"patchline" : 				{
					"source" : [ "obj-49", 0 ],
					"destination" : [ "obj-44", 0 ],
					"hidden" : 0,
					"midpoints" : [  ]
				}

			}
, 			{
				"patchline" : 				{
					"source" : [ "obj-51", 0 ],
					"destination" : [ "obj-36", 0 ],
					"hidden" : 1,
					"midpoints" : [ 159.5, 383.0, 341.5, 383.0 ]
				}

			}
, 			{
				"patchline" : 				{
					"source" : [ "obj-51", 0 ],
					"destination" : [ "obj-7", 0 ],
					"hidden" : 0,
					"midpoints" : [  ]
				}

			}
, 			{
				"patchline" : 				{
					"source" : [ "obj-51", 1 ],
					"destination" : [ "obj-7", 1 ],
					"hidden" : 0,
					"midpoints" : [  ]
				}

			}
, 			{
				"patchline" : 				{
					"source" : [ "obj-7", 0 ],
					"destination" : [ "obj-1", 0 ],
					"hidden" : 0,
					"midpoints" : [  ]
				}

			}
, 			{
				"patchline" : 				{
					"source" : [ "obj-7", 1 ],
					"destination" : [ "obj-1", 1 ],
					"hidden" : 0,
					"midpoints" : [  ]
				}

			}
, 			{
				"patchline" : 				{
					"source" : [ "obj-11", 0 ],
					"destination" : [ "obj-12", 0 ],
					"hidden" : 0,
					"midpoints" : [  ]
				}

			}
, 			{
				"patchline" : 				{
					"source" : [ "obj-12", 0 ],
					"destination" : [ "obj-53", 0 ],
					"hidden" : 0,
					"midpoints" : [ 324.5, 263.5, 24.5, 263.5 ]
				}

			}
, 			{
				"patchline" : 				{
					"source" : [ "obj-52", 0 ],
					"destination" : [ "obj-13", 0 ],
					"hidden" : 0,
					"midpoints" : [  ]
				}

			}
, 			{
				"patchline" : 				{
					"source" : [ "obj-13", 0 ],
					"destination" : [ "obj-51", 0 ],
					"hidden" : 0,
					"midpoints" : [  ]
				}

			}
, 			{
				"patchline" : 				{
					"source" : [ "obj-14", 0 ],
					"destination" : [ "obj-38", 0 ],
					"hidden" : 0,
					"midpoints" : [  ]
				}

			}
, 			{
				"patchline" : 				{
					"source" : [ "obj-25", 0 ],
					"destination" : [ "obj-7", 2 ],
					"hidden" : 0,
					"midpoints" : [  ]
				}

			}
, 			{
				"patchline" : 				{
					"source" : [ "obj-17", 0 ],
					"destination" : [ "obj-37", 0 ],
					"hidden" : 0,
					"midpoints" : [  ]
				}

			}
, 			{
				"patchline" : 				{
					"source" : [ "obj-19", 0 ],
					"destination" : [ "obj-21", 0 ],
					"hidden" : 0,
					"midpoints" : [  ]
				}

			}
, 			{
				"patchline" : 				{
					"source" : [ "obj-21", 0 ],
					"destination" : [ "obj-17", 0 ],
					"hidden" : 0,
					"midpoints" : [  ]
				}

			}
, 			{
				"patchline" : 				{
					"source" : [ "obj-38", 2 ],
					"destination" : [ "obj-19", 0 ],
					"hidden" : 0,
					"midpoints" : [  ]
				}

			}
, 			{
				"patchline" : 				{
					"source" : [ "obj-23", 0 ],
					"destination" : [ "obj-19", 0 ],
					"hidden" : 0,
					"midpoints" : [  ]
				}

			}
, 			{
				"patchline" : 				{
					"source" : [ "obj-40", 0 ],
					"destination" : [ "obj-23", 0 ],
					"hidden" : 0,
					"midpoints" : [  ]
				}

			}
 ],
		"parameters" : 		{

		}

	}

}
